# File created by Blade
# Date/Time:  Tue Jan 27 19:54:25 2015
# Frame Rate: 120.000 fps
#------------------------------------------------------
:FULLY-SPECIFIED
:DEGREES
4062
root 3.176948 32.363440 -0.919232 7.092594 -14.671086 0.540904
Spine 4.734584 10.558111 -2.267757
Head -6.267896 -0.257968 1.310085
LeftShoulder -13.803053 -7.528033 30.225817
LeftArm 5.334220 -16.995182 -74.156235
LeftForeArm -33.611563 -0.000000 107.094230
LeftHand 10.179782 -0.000000 -27.025414
LeftHandThumb1 -26.253704 0.000000 33.147579
RightShoulder -13.531239 -15.752331 -24.691092
RightArm 12.961581 -30.900508 90.622591
RightForeArm -25.499120 -0.000000 24.250710
RightHand 17.867373 -0.000000 8.572632
RightHandThumb1 -24.326973 -0.000000 -32.862282
LeftUpLeg -1.929022 -7.938166 -3.675540
LeftLeg -0.473665 -0.000000 0.000000
LeftFoot -13.702959 10.829372 -18.480486
LeftToeBase 20.759172 -0.000000 -0.000000
RightUpLeg -6.303178 -5.082112 2.785006
RightLeg 8.781268 -0.000000 -0.000000
RightFoot -14.723225 -1.437294 22.259469
RightToeBase 5.920482 -0.000000 -0.000000
4063
root 3.144627 32.343223 -0.878245 6.736029 -14.219393 0.898973
Spine 4.686630 10.557194 -2.280227
Head -5.848549 -0.768621 1.180673
LeftShoulder -13.808286 -7.479408 30.100678
LeftArm 5.358716 -16.824147 -74.542481
LeftForeArm -32.619200 -0.000000 106.621214
LeftHand 10.290302 -0.000000 -26.610809
LeftHandThumb1 -26.253704 0.000000 33.147579
RightShoulder -13.582544 -15.932469 -24.685508
RightArm 12.743500 -30.806294 90.784250
RightForeArm -25.131625 -0.000000 24.256692
RightHand 18.020932 0.000000 8.710776
RightHandThumb1 -24.326973 -0.000000 -32.862282
LeftUpLeg -1.710044 -8.301807 -3.950613
LeftLeg -0.245574 -0.000000 0.000000
LeftFoot -13.750636 10.557359 -18.664469
LeftToeBase 20.642337 -0.000000 -0.000000
RightUpLeg -5.754520 -5.586044 2.553630
RightLeg 8.525235 -0.000000 -0.000000
RightFoot -15.007020 -1.605199 21.328514
RightToeBase 4.457462 -0.000000 -0.000000
4064
root 3.105999 32.332374 -0.846037 6.427546 -13.792701 1.146232
Spine 4.665974 10.599356 -2.208675
Head -5.513389 -1.112256 0.992295
LeftShoulder -13.848576 -7.538063 29.991751
LeftArm 5.251839 -16.564871 -74.895863
LeftForeArm -31.231288 -0.000000 106.215974
LeftHand 10.257411 -0.000000 -26.049891
LeftHandThumb1 -26.253704 0.000000 33.147579
RightShoulder -13.680786 -15.945988 -24.637310
RightArm 12.443727 -30.791267 90.915340
RightForeArm -24.987541 -0.000000 24.198568
RightHand 18.142566 0.000000 8.686871
RightHandThumb1 -24.326973 -0.000000 -32.862282
LeftUpLeg -1.574523 -8.579018 -4.129273
LeftLeg 0.078804 -0.000000 -0.000000
LeftFoot -13.847384 10.361981 -18.758661
LeftToeBase 20.682636 -0.000000 -0.000000
RightUpLeg -5.276570 -5.724651 2.424090
RightLeg 8.318795 -0.000000 -0.000000
RightFoot -15.438135 -2.135877 21.053538
RightToeBase 4.482942 -0.000000 -0.000000
4065
root 3.065769 32.328995 -0.814015 6.178180 -13.397821 1.309770
Spine 4.599122 10.619892 -2.050424
Head -5.185180 -1.414408 0.789423
LeftShoulder -13.917102 -7.477039 29.878141
LeftArm 5.137256 -16.322868 -75.331509
LeftForeArm -29.738163 -0.000000 105.769325
LeftHand 10.258568 -0.000000 -24.642449
LeftHandThumb1 -26.253704 0.000000 33.147579
RightShoulder -13.784164 -16.010367 -24.593714
RightArm 12.267833 -30.918922 90.981378
RightForeArm -25.004300 -0.000000 24.095011
RightHand 18.211792 -0.000000 8.072516
RightHandThumb1 -24.326973 -0.000000 -32.862282
LeftUpLeg -1.473040 -8.916550 -4.221800
LeftLeg 0.396823 -0.000000 -0.000000
LeftFoot -13.972683 10.241290 -18.927797
LeftToeBase 20.723386 -0.000000 -0.000000
RightUpLeg -4.862437 -5.906518 2.366074
RightLeg 8.112464 -0.000000 -0.000000
RightFoot -15.585007 -2.606190 20.755997
RightToeBase 4.865704 -0.000000 -0.000000
4066
root 3.024551 32.331225 -0.780668 5.975117 -13.033075 1.396929
Spine 4.503869 10.638515 -1.776533
Head -4.873513 -1.724589 0.500190
LeftShoulder -13.954060 -7.421484 29.679266
LeftArm 4.895683 -16.147014 -75.689099
LeftForeArm -28.266296 -0.000000 105.380031
LeftHand 10.178430 -0.000000 -24.462513
LeftHandThumb1 -26.253704 0.000000 33.147579
RightShoulder -13.858020 -16.249351 -24.565396
RightArm 12.263614 -31.056710 90.960328
RightForeArm -25.340445 -0.000000 24.085621
RightHand 17.813988 0.000000 8.016788
RightHandThumb1 -24.326973 -0.000000 -32.862282
LeftUpLeg -1.405464 -9.287154 -4.238818
LeftLeg 0.736582 -0.000000 -0.000000
LeftFoot -14.112418 10.182300 -19.046015
LeftToeBase 20.729960 -0.000000 -0.000000
RightUpLeg -4.489635 -5.960306 2.365060
RightLeg 7.948866 -0.000000 -0.000000
RightFoot -15.686751 -3.104576 20.458559
RightToeBase 5.531863 -0.000000 -0.000000
4067
root 2.982753 32.338167 -0.748700 5.785199 -12.716130 1.438814
Spine 4.439039 10.610746 -1.494528
Head -4.653250 -1.874106 0.246077
LeftShoulder -14.098916 -7.273684 29.541690
LeftArm 4.625060 -15.913949 -76.121091
LeftForeArm -26.384821 0.000000 105.069445
LeftHand 10.225207 -0.000000 -24.494916
LeftHandThumb1 -26.253704 0.000000 33.147579
RightShoulder -13.897776 -16.643627 -24.473916
RightArm 12.531962 -31.056501 90.779684
RightForeArm -25.301949 -0.000000 24.045397
RightHand 18.006339 0.000000 7.280159
RightHandThumb1 -24.326973 -0.000000 -32.862282
LeftUpLeg -1.386641 -9.510780 -4.247194
LeftLeg 1.176051 -0.000000 -0.000000
LeftFoot -14.179250 10.169811 -18.847601
LeftToeBase 20.415660 -0.000000 -0.000000
RightUpLeg -4.146205 -5.986302 2.401727
RightLeg 7.841625 -0.000000 -0.000000
RightFoot -15.721846 -3.542429 20.312494
RightToeBase 5.434281 -0.000000 -0.000000
4068
root 2.948722 32.344015 -0.710640 5.580572 -12.455507 1.489358
Spine 4.364234 10.622609 -1.226369
Head -4.436796 -2.136247 0.105290
LeftShoulder -14.196456 -7.043126 29.453138
LeftArm 4.265251 -15.694772 -76.626850
LeftForeArm -23.989111 -0.000000 104.855913
LeftHand 10.066834 -0.000000 -23.870131
LeftHandThumb1 -26.253704 0.000000 33.147579
RightShoulder -14.002347 -16.799745 -24.497641
RightArm 12.553136 -31.157242 90.733916
RightForeArm -25.397114 -0.000000 23.985119
RightHand 18.001993 -0.000000 7.073820
RightHandThumb1 -24.326973 -0.000000 -32.862282
LeftUpLeg -1.319758 -9.706126 -4.282061
LeftLeg 1.558989 -0.000000 -0.000000
LeftFoot -14.304630 10.156004 -18.862984
LeftToeBase 20.544894 -0.000000 -0.000000
RightUpLeg -3.809817 -6.150966 2.391808
RightLeg 7.777935 -0.000000 -0.000000
RightFoot -15.709399 -3.642422 20.162762
RightToeBase 5.150715 -0.000000 -0.000000
4069
root 2.911383 32.349692 -0.676500 5.407031 -12.233616 1.526094
Spine 4.285730 10.608552 -1.005986
Head -4.280537 -2.160592 -0.039028
LeftShoulder -14.326061 -6.678228 29.427497
LeftArm 3.895006 -15.459493 -77.166849
LeftForeArm -21.345323 0.000000 104.684783
LeftHand 9.974090 -0.000000 -22.918480
LeftHandThumb1 -26.253704 0.000000 33.147579
RightShoulder -14.107029 -16.851425 -24.517884
RightArm 12.501780 -31.158382 90.732266
RightForeArm -25.315540 -0.000000 23.956881
RightHand 18.124555 -0.000000 7.295353
RightHandThumb1 -24.326973 -0.000000 -32.862282
LeftUpLeg -1.311789 -9.773579 -4.306050
LeftLeg 1.990724 -0.000000 -0.000000
LeftFoot -14.504777 10.142209 -18.984588
LeftToeBase 20.906738 -0.000000 -0.000000
RightUpLeg -3.535519 -6.216873 2.400220
RightLeg 7.761772 -0.000000 -0.000000
RightFoot -15.716656 -3.799177 20.023499
RightToeBase 5.056563 -0.000000 -0.000000
4070
root 2.878737 32.353391 -0.641376 5.245426 -12.039192 1.580138
Spine 4.192028 10.496557 -0.824959
Head -4.173445 -2.105533 -0.123309
LeftShoulder -14.556899 -6.285429 29.453084
LeftArm 3.420526 -15.172792 -77.679148
LeftForeArm -18.716440 -0.000000 104.493667
LeftHand 9.775816 -0.000000 -22.275983
LeftHandThumb1 -26.253704 0.000000 33.147579
RightShoulder -14.179332 -16.628779 -24.656455
RightArm 12.195035 -31.156305 90.871092
RightForeArm -25.102895 0.000000 23.976867
RightHand 18.051040 -0.000000 7.569649
RightHandThumb1 -24.326973 -0.000000 -32.862282
LeftUpLeg -1.318580 -9.830890 -4.358112
LeftLeg 2.425816 -0.000000 -0.000000
LeftFoot -14.637078 10.159018 -18.946146
LeftToeBase 21.055876 -0.000000 -0.000000
RightUpLeg -3.290246 -6.252628 2.379025
RightLeg 7.781076 -0.000000 -0.000000
RightFoot -15.812898 -3.883394 20.006747
RightToeBase 5.769497 -0.000000 -0.000000
4071
root 2.840891 32.355467 -0.601014 5.031675 -11.795541 1.630796
Spine 4.129031 10.354517 -0.683696
Head -4.045064 -2.127532 -0.050796
LeftShoulder -14.719784 -5.853570 29.516414
LeftArm 2.928718 -14.850461 -78.228359
LeftForeArm -15.951736 -0.000000 104.286222
LeftHand 9.603846 -0.000000 -21.134113
LeftHandThumb1 -26.253704 0.000000 33.147579
RightShoulder -14.218197 -16.597496 -24.713116
RightArm 11.981337 -30.990748 90.980425
RightForeArm -25.092231 -0.000000 24.090699
RightHand 18.103716 -0.000000 7.561660
RightHandThumb1 -24.326973 -0.000000 -32.862282
LeftUpLeg -1.266593 -9.724369 -4.407184
LeftLeg 2.859351 -0.000000 -0.000000
LeftFoot -14.698537 9.989384 -18.880060
LeftToeBase 21.193361 -0.000000 -0.000000
RightUpLeg -2.954011 -6.391185 2.373083
RightLeg 7.747078 -0.000000 -0.000000
RightFoot -15.828424 -4.040895 19.811784
RightToeBase 5.889332 -0.000000 -0.000000
